<mxfile host="app.diagrams.net" modified="2021-11-30T15:16:26.630Z" agent="5.0 (Windows NT 10.0; Win64; x64) AppleWebKit/537.36 (KHTML, like Gecko) Chrome/96.0.4664.45 Safari/537.36" etag="H7kjRRRTHStGRcC6U3Sy" version="15.8.7" type="github">
  <diagram name="Page-1" id="74e2e168-ea6b-b213-b513-2b3c1d86103e">
    <mxGraphModel dx="1662" dy="1654" grid="1" gridSize="10" guides="1" tooltips="1" connect="1" arrows="1" fold="1" page="1" pageScale="1" pageWidth="1100" pageHeight="850" background="none" math="0" shadow="0">
      <root>
        <mxCell id="0" />
        <mxCell id="1" parent="0" />
        <mxCell id="77e6c97f196da883-1" value="Pool" style="swimlane;html=1;childLayout=stackLayout;startSize=20;rounded=0;shadow=0;labelBackgroundColor=none;strokeWidth=1;fontFamily=Verdana;fontSize=8;align=center;" parent="1" vertex="1">
          <mxGeometry x="110" y="-120" width="1530" height="1150" as="geometry" />
        </mxCell>
        <mxCell id="77e6c97f196da883-2" value="SSO front&amp;nbsp;" style="swimlane;html=1;startSize=20;" parent="77e6c97f196da883-1" vertex="1">
          <mxGeometry y="20" width="340" height="1130" as="geometry" />
        </mxCell>
        <mxCell id="eCFHEnjU7VW3SYDgLny5-4" value="inicio" style="ellipse;whiteSpace=wrap;html=1;" parent="77e6c97f196da883-2" vertex="1">
          <mxGeometry y="75" width="90" height="50" as="geometry" />
        </mxCell>
        <mxCell id="eCFHEnjU7VW3SYDgLny5-5" value="se crea el traspaso&amp;nbsp;" style="whiteSpace=wrap;html=1;" parent="77e6c97f196da883-2" vertex="1">
          <mxGeometry x="150" y="70" width="120" height="60" as="geometry" />
        </mxCell>
        <mxCell id="eCFHEnjU7VW3SYDgLny5-6" value="" style="edgeStyle=orthogonalEdgeStyle;rounded=0;orthogonalLoop=1;jettySize=auto;html=1;" parent="77e6c97f196da883-2" source="eCFHEnjU7VW3SYDgLny5-4" target="eCFHEnjU7VW3SYDgLny5-5" edge="1">
          <mxGeometry relative="1" as="geometry" />
        </mxCell>
        <mxCell id="eCFHEnjU7VW3SYDgLny5-8" value="" style="edgeStyle=orthogonalEdgeStyle;rounded=0;orthogonalLoop=1;jettySize=auto;html=1;" parent="77e6c97f196da883-1" source="eCFHEnjU7VW3SYDgLny5-5" target="eCFHEnjU7VW3SYDgLny5-7" edge="1">
          <mxGeometry relative="1" as="geometry" />
        </mxCell>
        <mxCell id="eCFHEnjU7VW3SYDgLny5-32" value="" style="edgeStyle=orthogonalEdgeStyle;rounded=0;orthogonalLoop=1;jettySize=auto;html=1;" parent="77e6c97f196da883-1" source="eCFHEnjU7VW3SYDgLny5-11" target="eCFHEnjU7VW3SYDgLny5-31" edge="1">
          <mxGeometry relative="1" as="geometry" />
        </mxCell>
        <mxCell id="eCFHEnjU7VW3SYDgLny5-49" style="edgeStyle=orthogonalEdgeStyle;rounded=0;orthogonalLoop=1;jettySize=auto;html=1;exitX=1;exitY=0.5;exitDx=0;exitDy=0;entryX=0;entryY=0.5;entryDx=0;entryDy=0;" parent="77e6c97f196da883-1" source="eCFHEnjU7VW3SYDgLny5-47" target="eCFHEnjU7VW3SYDgLny5-35" edge="1">
          <mxGeometry relative="1" as="geometry" />
        </mxCell>
        <mxCell id="eCFHEnjU7VW3SYDgLny5-50" value="no" style="edgeLabel;html=1;align=center;verticalAlign=middle;resizable=0;points=[];" parent="eCFHEnjU7VW3SYDgLny5-49" vertex="1" connectable="0">
          <mxGeometry x="-0.3097" relative="1" as="geometry">
            <mxPoint as="offset" />
          </mxGeometry>
        </mxCell>
        <mxCell id="eCFHEnjU7VW3SYDgLny5-38" style="edgeStyle=orthogonalEdgeStyle;rounded=0;orthogonalLoop=1;jettySize=auto;html=1;entryX=1;entryY=0.5;entryDx=0;entryDy=0;" parent="77e6c97f196da883-1" source="eCFHEnjU7VW3SYDgLny5-35" target="eCFHEnjU7VW3SYDgLny5-29" edge="1">
          <mxGeometry relative="1" as="geometry">
            <mxPoint x="930" y="610" as="targetPoint" />
            <Array as="points">
              <mxPoint x="1130" y="850" />
            </Array>
          </mxGeometry>
        </mxCell>
        <mxCell id="eCFHEnjU7VW3SYDgLny5-59" value="si" style="edgeStyle=orthogonalEdgeStyle;rounded=0;orthogonalLoop=1;jettySize=auto;html=1;" parent="77e6c97f196da883-1" source="eCFHEnjU7VW3SYDgLny5-56" target="eCFHEnjU7VW3SYDgLny5-58" edge="1">
          <mxGeometry relative="1" as="geometry" />
        </mxCell>
        <mxCell id="77e6c97f196da883-3" value="sso back&lt;span style=&quot;white-space: pre&quot;&gt; &lt;/span&gt;" style="swimlane;html=1;startSize=20;" parent="77e6c97f196da883-1" vertex="1">
          <mxGeometry x="340" y="20" width="580" height="1130" as="geometry" />
        </mxCell>
        <mxCell id="eCFHEnjU7VW3SYDgLny5-10" value="" style="edgeStyle=orthogonalEdgeStyle;rounded=0;orthogonalLoop=1;jettySize=auto;html=1;" parent="77e6c97f196da883-3" source="eCFHEnjU7VW3SYDgLny5-7" target="eCFHEnjU7VW3SYDgLny5-9" edge="1">
          <mxGeometry relative="1" as="geometry" />
        </mxCell>
        <mxCell id="eCFHEnjU7VW3SYDgLny5-7" value="recibe el traspaso&amp;nbsp; con los productos" style="whiteSpace=wrap;html=1;" parent="77e6c97f196da883-3" vertex="1">
          <mxGeometry x="5" y="70" width="120" height="60" as="geometry" />
        </mxCell>
        <mxCell id="eCFHEnjU7VW3SYDgLny5-17" value="" style="edgeStyle=orthogonalEdgeStyle;rounded=0;orthogonalLoop=1;jettySize=auto;html=1;" parent="77e6c97f196da883-3" source="eCFHEnjU7VW3SYDgLny5-9" target="eCFHEnjU7VW3SYDgLny5-16" edge="1">
          <mxGeometry relative="1" as="geometry" />
        </mxCell>
        <mxCell id="eCFHEnjU7VW3SYDgLny5-9" value="es nuevo?" style="rhombus;whiteSpace=wrap;html=1;" parent="77e6c97f196da883-3" vertex="1">
          <mxGeometry x="185" y="60" width="80" height="80" as="geometry" />
        </mxCell>
        <mxCell id="eCFHEnjU7VW3SYDgLny5-48" value="si" style="edgeStyle=orthogonalEdgeStyle;rounded=0;orthogonalLoop=1;jettySize=auto;html=1;" parent="77e6c97f196da883-3" source="eCFHEnjU7VW3SYDgLny5-16" target="eCFHEnjU7VW3SYDgLny5-47" edge="1">
          <mxGeometry relative="1" as="geometry" />
        </mxCell>
        <mxCell id="eCFHEnjU7VW3SYDgLny5-16" value="los productos / sucursal origen&amp;nbsp; se modificaron?" style="rhombus;whiteSpace=wrap;html=1;" parent="77e6c97f196da883-3" vertex="1">
          <mxGeometry x="170" y="265" width="110" height="105" as="geometry" />
        </mxCell>
        <mxCell id="eCFHEnjU7VW3SYDgLny5-24" value="" style="edgeStyle=orthogonalEdgeStyle;rounded=0;orthogonalLoop=1;jettySize=auto;html=1;" parent="77e6c97f196da883-3" source="eCFHEnjU7VW3SYDgLny5-21" target="eCFHEnjU7VW3SYDgLny5-23" edge="1">
          <mxGeometry relative="1" as="geometry" />
        </mxCell>
        <mxCell id="eCFHEnjU7VW3SYDgLny5-21" value="se guarda el traspaso" style="whiteSpace=wrap;html=1;" parent="77e6c97f196da883-3" vertex="1">
          <mxGeometry x="165" y="580" width="120" height="60" as="geometry" />
        </mxCell>
        <mxCell id="eCFHEnjU7VW3SYDgLny5-11" value="se debe abrir conexion a la branch&amp;nbsp;" style="whiteSpace=wrap;html=1;" parent="77e6c97f196da883-3" vertex="1">
          <mxGeometry x="430" y="70" width="120" height="60" as="geometry" />
        </mxCell>
        <mxCell id="eCFHEnjU7VW3SYDgLny5-12" value="" style="edgeStyle=orthogonalEdgeStyle;rounded=0;orthogonalLoop=1;jettySize=auto;html=1;" parent="77e6c97f196da883-3" source="eCFHEnjU7VW3SYDgLny5-9" target="eCFHEnjU7VW3SYDgLny5-11" edge="1">
          <mxGeometry relative="1" as="geometry" />
        </mxCell>
        <mxCell id="eCFHEnjU7VW3SYDgLny5-15" value="si" style="edgeLabel;html=1;align=center;verticalAlign=middle;resizable=0;points=[];" parent="eCFHEnjU7VW3SYDgLny5-12" vertex="1" connectable="0">
          <mxGeometry x="-0.2182" y="-1" relative="1" as="geometry">
            <mxPoint as="offset" />
          </mxGeometry>
        </mxCell>
        <mxCell id="eCFHEnjU7VW3SYDgLny5-23" value="se envía la notificación" style="whiteSpace=wrap;html=1;" parent="77e6c97f196da883-3" vertex="1">
          <mxGeometry x="165" y="690" width="120" height="60" as="geometry" />
        </mxCell>
        <mxCell id="eCFHEnjU7VW3SYDgLny5-61" style="edgeStyle=orthogonalEdgeStyle;rounded=0;orthogonalLoop=1;jettySize=auto;html=1;exitX=0.5;exitY=0;exitDx=0;exitDy=0;entryX=0.5;entryY=1;entryDx=0;entryDy=0;" parent="77e6c97f196da883-3" source="eCFHEnjU7VW3SYDgLny5-47" target="eCFHEnjU7VW3SYDgLny5-11" edge="1">
          <mxGeometry relative="1" as="geometry" />
        </mxCell>
        <mxCell id="eCFHEnjU7VW3SYDgLny5-47" value="&lt;span&gt;se debe validar que los productos esten disponibles para la sucursal.&lt;/span&gt;" style="rhombus;whiteSpace=wrap;html=1;" parent="77e6c97f196da883-3" vertex="1">
          <mxGeometry x="405" y="228.75" width="170" height="177.5" as="geometry" />
        </mxCell>
        <mxCell id="eCFHEnjU7VW3SYDgLny5-29" value="fin" style="ellipse;whiteSpace=wrap;html=1;" parent="77e6c97f196da883-3" vertex="1">
          <mxGeometry x="165" y="800" width="120" height="60" as="geometry" />
        </mxCell>
        <mxCell id="eCFHEnjU7VW3SYDgLny5-30" value="" style="edgeStyle=orthogonalEdgeStyle;rounded=0;orthogonalLoop=1;jettySize=auto;html=1;" parent="77e6c97f196da883-3" source="eCFHEnjU7VW3SYDgLny5-23" target="eCFHEnjU7VW3SYDgLny5-29" edge="1">
          <mxGeometry relative="1" as="geometry" />
        </mxCell>
        <mxCell id="eCFHEnjU7VW3SYDgLny5-55" value="no" style="edgeStyle=orthogonalEdgeStyle;rounded=0;orthogonalLoop=1;jettySize=auto;html=1;" parent="77e6c97f196da883-3" source="eCFHEnjU7VW3SYDgLny5-53" target="eCFHEnjU7VW3SYDgLny5-21" edge="1">
          <mxGeometry relative="1" as="geometry" />
        </mxCell>
        <mxCell id="eCFHEnjU7VW3SYDgLny5-53" value="cambio de status&amp;nbsp;" style="rhombus;whiteSpace=wrap;html=1;" parent="77e6c97f196da883-3" vertex="1">
          <mxGeometry x="185" y="450" width="80" height="80" as="geometry" />
        </mxCell>
        <mxCell id="eCFHEnjU7VW3SYDgLny5-54" value="" style="edgeStyle=orthogonalEdgeStyle;rounded=0;orthogonalLoop=1;jettySize=auto;html=1;" parent="77e6c97f196da883-3" source="eCFHEnjU7VW3SYDgLny5-16" target="eCFHEnjU7VW3SYDgLny5-53" edge="1">
          <mxGeometry relative="1" as="geometry" />
        </mxCell>
        <mxCell id="eCFHEnjU7VW3SYDgLny5-63" style="edgeStyle=orthogonalEdgeStyle;rounded=0;orthogonalLoop=1;jettySize=auto;html=1;entryX=1;entryY=0.75;entryDx=0;entryDy=0;exitX=0.5;exitY=1;exitDx=0;exitDy=0;" parent="77e6c97f196da883-3" source="eCFHEnjU7VW3SYDgLny5-56" target="eCFHEnjU7VW3SYDgLny5-21" edge="1">
          <mxGeometry relative="1" as="geometry">
            <Array as="points">
              <mxPoint x="500" y="625" />
            </Array>
          </mxGeometry>
        </mxCell>
        <mxCell id="eCFHEnjU7VW3SYDgLny5-64" value="no" style="edgeLabel;html=1;align=center;verticalAlign=middle;resizable=0;points=[];" parent="eCFHEnjU7VW3SYDgLny5-63" vertex="1" connectable="0">
          <mxGeometry x="-0.192" y="2" relative="1" as="geometry">
            <mxPoint as="offset" />
          </mxGeometry>
        </mxCell>
        <mxCell id="eCFHEnjU7VW3SYDgLny5-56" value="&amp;nbsp;cancelado / rechazado&amp;nbsp;" style="rhombus;whiteSpace=wrap;html=1;" parent="77e6c97f196da883-3" vertex="1">
          <mxGeometry x="460" y="450" width="80" height="80" as="geometry" />
        </mxCell>
        <mxCell id="eCFHEnjU7VW3SYDgLny5-57" value="si" style="edgeStyle=orthogonalEdgeStyle;rounded=0;orthogonalLoop=1;jettySize=auto;html=1;" parent="77e6c97f196da883-3" source="eCFHEnjU7VW3SYDgLny5-53" target="eCFHEnjU7VW3SYDgLny5-56" edge="1">
          <mxGeometry relative="1" as="geometry" />
        </mxCell>
        <mxCell id="77e6c97f196da883-4" value="branch" style="swimlane;html=1;startSize=20;" parent="77e6c97f196da883-1" vertex="1">
          <mxGeometry x="920" y="20" width="610" height="1130" as="geometry" />
        </mxCell>
        <mxCell id="eCFHEnjU7VW3SYDgLny5-28" value="" style="edgeStyle=orthogonalEdgeStyle;rounded=0;orthogonalLoop=1;jettySize=auto;html=1;" parent="77e6c97f196da883-4" source="eCFHEnjU7VW3SYDgLny5-25" target="eCFHEnjU7VW3SYDgLny5-27" edge="1">
          <mxGeometry relative="1" as="geometry" />
        </mxCell>
        <mxCell id="eCFHEnjU7VW3SYDgLny5-25" value="&amp;nbsp;la cantidad de productos debe estar disponible. ademas de validar con la fecha de caducidad" style="whiteSpace=wrap;html=1;" parent="77e6c97f196da883-4" vertex="1">
          <mxGeometry x="445" y="60" width="150" height="80" as="geometry" />
        </mxCell>
        <mxCell id="eCFHEnjU7VW3SYDgLny5-40" value="si" style="edgeStyle=orthogonalEdgeStyle;rounded=0;orthogonalLoop=1;jettySize=auto;html=1;" parent="77e6c97f196da883-4" source="eCFHEnjU7VW3SYDgLny5-27" target="eCFHEnjU7VW3SYDgLny5-39" edge="1">
          <mxGeometry relative="1" as="geometry" />
        </mxCell>
        <mxCell id="eCFHEnjU7VW3SYDgLny5-27" value="esta dispobible en stock?" style="rhombus;whiteSpace=wrap;html=1;" parent="77e6c97f196da883-4" vertex="1">
          <mxGeometry x="460" y="210" width="120" height="120" as="geometry" />
        </mxCell>
        <mxCell id="eCFHEnjU7VW3SYDgLny5-34" value="si" style="edgeStyle=orthogonalEdgeStyle;rounded=0;orthogonalLoop=1;jettySize=auto;html=1;exitX=1;exitY=0.5;exitDx=0;exitDy=0;" parent="77e6c97f196da883-4" source="eCFHEnjU7VW3SYDgLny5-31" target="eCFHEnjU7VW3SYDgLny5-25" edge="1">
          <mxGeometry relative="1" as="geometry" />
        </mxCell>
        <mxCell id="eCFHEnjU7VW3SYDgLny5-31" value="conexion exitosa?" style="rhombus;whiteSpace=wrap;html=1;" parent="77e6c97f196da883-4" vertex="1">
          <mxGeometry x="170" y="60" width="80" height="80" as="geometry" />
        </mxCell>
        <mxCell id="eCFHEnjU7VW3SYDgLny5-52" style="edgeStyle=orthogonalEdgeStyle;rounded=0;orthogonalLoop=1;jettySize=auto;html=1;exitX=0;exitY=0.5;exitDx=0;exitDy=0;" parent="77e6c97f196da883-4" source="eCFHEnjU7VW3SYDgLny5-39" target="eCFHEnjU7VW3SYDgLny5-51" edge="1">
          <mxGeometry relative="1" as="geometry" />
        </mxCell>
        <mxCell id="eCFHEnjU7VW3SYDgLny5-39" value="descontarlo del&amp;nbsp; stock de la tienda de origen y congelarlo&amp;nbsp;" style="whiteSpace=wrap;html=1;" parent="77e6c97f196da883-4" vertex="1">
          <mxGeometry x="460" y="560" width="120" height="60" as="geometry" />
        </mxCell>
        <mxCell id="eCFHEnjU7VW3SYDgLny5-35" value="notificarle al usuario&amp;nbsp;" style="whiteSpace=wrap;html=1;" parent="77e6c97f196da883-4" vertex="1">
          <mxGeometry x="150" y="287.5" width="120" height="60" as="geometry" />
        </mxCell>
        <mxCell id="eCFHEnjU7VW3SYDgLny5-36" value="" style="edgeStyle=orthogonalEdgeStyle;rounded=0;orthogonalLoop=1;jettySize=auto;html=1;" parent="77e6c97f196da883-4" source="eCFHEnjU7VW3SYDgLny5-31" target="eCFHEnjU7VW3SYDgLny5-35" edge="1">
          <mxGeometry relative="1" as="geometry" />
        </mxCell>
        <mxCell id="eCFHEnjU7VW3SYDgLny5-37" value="no" style="edgeLabel;html=1;align=center;verticalAlign=middle;resizable=0;points=[];" parent="eCFHEnjU7VW3SYDgLny5-36" vertex="1" connectable="0">
          <mxGeometry x="-0.2667" y="2" relative="1" as="geometry">
            <mxPoint as="offset" />
          </mxGeometry>
        </mxCell>
        <mxCell id="eCFHEnjU7VW3SYDgLny5-41" style="edgeStyle=orthogonalEdgeStyle;rounded=0;orthogonalLoop=1;jettySize=auto;html=1;entryX=1;entryY=0.5;entryDx=0;entryDy=0;" parent="77e6c97f196da883-4" source="eCFHEnjU7VW3SYDgLny5-27" target="eCFHEnjU7VW3SYDgLny5-35" edge="1">
          <mxGeometry relative="1" as="geometry">
            <mxPoint x="80" y="260" as="targetPoint" />
          </mxGeometry>
        </mxCell>
        <mxCell id="eCFHEnjU7VW3SYDgLny5-42" value="no" style="edgeLabel;html=1;align=center;verticalAlign=middle;resizable=0;points=[];" parent="eCFHEnjU7VW3SYDgLny5-41" vertex="1" connectable="0">
          <mxGeometry x="0.2552" y="-1" relative="1" as="geometry">
            <mxPoint as="offset" />
          </mxGeometry>
        </mxCell>
        <mxCell id="eCFHEnjU7VW3SYDgLny5-51" value="congela el stock&amp;nbsp;" style="shape=cylinder3;whiteSpace=wrap;html=1;boundedLbl=1;backgroundOutline=1;size=15;" parent="77e6c97f196da883-4" vertex="1">
          <mxGeometry x="330" y="550" width="60" height="80" as="geometry" />
        </mxCell>
        <mxCell id="eCFHEnjU7VW3SYDgLny5-58" value="se debe liberar el stock congelado" style="whiteSpace=wrap;html=1;" parent="77e6c97f196da883-4" vertex="1">
          <mxGeometry x="70" y="560" width="120" height="60" as="geometry" />
        </mxCell>
        <mxCell id="eCFHEnjU7VW3SYDgLny5-60" style="edgeStyle=orthogonalEdgeStyle;rounded=0;orthogonalLoop=1;jettySize=auto;html=1;entryX=0;entryY=0.5;entryDx=0;entryDy=0;entryPerimeter=0;" parent="77e6c97f196da883-4" source="eCFHEnjU7VW3SYDgLny5-58" target="eCFHEnjU7VW3SYDgLny5-51" edge="1">
          <mxGeometry relative="1" as="geometry" />
        </mxCell>
        <mxCell id="Xy1JPDZB7xpuh3WYk70o-3" style="edgeStyle=orthogonalEdgeStyle;rounded=0;orthogonalLoop=1;jettySize=auto;html=1;exitX=0.5;exitY=0;exitDx=0;exitDy=0;exitPerimeter=0;entryX=1;entryY=1;entryDx=0;entryDy=0;" edge="1" parent="77e6c97f196da883-4" source="eCFHEnjU7VW3SYDgLny5-51" target="eCFHEnjU7VW3SYDgLny5-35">
          <mxGeometry relative="1" as="geometry">
            <mxPoint x="310" y="330" as="targetPoint" />
          </mxGeometry>
        </mxCell>
        <mxCell id="eCFHEnjU7VW3SYDgLny5-65" value="&lt;h1&gt;aspectos importantes&lt;/h1&gt;&lt;ol style=&quot;box-sizing: border-box ; padding-left: 40px ; font-family: &amp;#34;segoe ui vss (regular)&amp;#34; , &amp;#34;segoe ui&amp;#34; , , &amp;#34;blinkmacsystemfont&amp;#34; , &amp;#34;roboto&amp;#34; , &amp;#34;helvetica neue&amp;#34; , &amp;#34;helvetica&amp;#34; , &amp;#34;ubuntu&amp;#34; , &amp;#34;arial&amp;#34; , sans-serif , &amp;#34;apple color emoji&amp;#34; , &amp;#34;segoe ui emoji&amp;#34; , &amp;#34;segoe ui symbol&amp;#34; ; font-size: 14px&quot;&gt;&lt;li style=&quot;box-sizing: border-box ; list-style: inherit&quot;&gt;al momento de guardar el traspaso se debe conectar a la sucursal de origen para validar el stock&amp;nbsp;&lt;/li&gt;&lt;li style=&quot;box-sizing: border-box ; list-style: inherit&quot;&gt;En caso del stock sea valido se debe congelar ( crear una tabla para el stock congelado )&amp;nbsp;&lt;/li&gt;&lt;li style=&quot;box-sizing: border-box ; list-style: inherit&quot;&gt;y restar del stock actual.&amp;nbsp;&lt;/li&gt;&lt;li style=&quot;box-sizing: border-box ; list-style: inherit&quot;&gt;se debe validar&amp;nbsp; las fechas de caducidad .&amp;nbsp;&lt;/li&gt;&lt;li style=&quot;box-sizing: border-box ; list-style: inherit&quot;&gt;&amp;nbsp;se puede realizar traspaso de insumos que estén dados de alta como producto&amp;nbsp;&lt;/li&gt;&lt;li style=&quot;box-sizing: border-box ; list-style: inherit&quot;&gt;en caso de que no se tenga conexión con la sucursal no se debe crear el&amp;nbsp; traspaso y se&amp;nbsp; debe visualizar algún mensaje al respecto&amp;nbsp;&lt;/li&gt;&lt;li style=&quot;box-sizing: border-box ; list-style: inherit&quot;&gt;de igual manera&amp;nbsp; si el stock no esta disponible , no se debe generar el traspaso y se debe visualizar algún mensaje al respecto.&lt;/li&gt;&lt;li style=&quot;box-sizing: border-box ; list-style: inherit&quot;&gt;los productos que se muestren en esa pantalla deben ser solo los que estén asignados a la sucursal origen y tiene que estar autorizados y activos&amp;nbsp;&lt;/li&gt;&lt;/ol&gt;" style="text;html=1;strokeColor=none;fillColor=none;spacing=5;spacingTop=-20;whiteSpace=wrap;overflow=hidden;rounded=0;" parent="1" vertex="1">
          <mxGeometry x="170" y="-410" width="910" height="320" as="geometry" />
        </mxCell>
      </root>
    </mxGraphModel>
  </diagram>
</mxfile>
